# xmcd
#
# Track frame offsets:
#	150
#	20687
#	39570
#	67415
#	86251
#	110300
#	128255
#	146807
#	173595
#	199287
#	229613
#	254990
#	281218
#	299525
#
# Disc length: 4247 seconds
#
# Revision: 1
# Processed by: cddbd v1.4PL0 Copyright (c) Steve Scherf et al.
# Submitted via: EasyCDDAExtractor 5.0.6
#
DISCID=d810950e
DTITLE=Darrell Scott - Theatre Of The Unheard (Special Edition)
DYEAR=2003
DGENRE=Country
TTITLE0=East of Gary
TTITLE1=Uncle Lloyd
TTITLE2=Day After Day
TTITLE3=6 O'Clock In The Morning
TTITLE4=Miracle Of Living
TTITLE5=Full Of Light
TTITLE6=I Wanna Be Free
TTITLE7=River Take Me
TTITLE8=Alton Air
TTITLE9=The Man Who Could Have Played Bass For Shanana
TTITLE10=After All
TTITLE11=10,000 Miles Away
TTITLE12=The Whiskey That Eases The Pain
TTITLE13=This Weary Way
EXTD=
EXTT0=
EXTT1=
EXTT2=
EXTT3=
EXTT4=
EXTT5=
EXTT6=
EXTT7=
EXTT8=
EXTT9=
EXTT10=
EXTT11=
EXTT12=
EXTT13=
PLAYORDER=
